<svg width="296" height="192" viewBox="0 0 376 272" fill="none" xmlns="http://www.w3.org/2000/svg">
<mask id="mask0_1043_7" style="mask-type:luminance" maskUnits="userSpaceOnUse" x="70" y="11" width="253" height="253">
<path d="M285.971 226.188C335.156 177.003 335.156 97.2572 285.971 48.0717C236.785 -1.11371 157.04 -1.11373 107.855 48.0717C58.6691 97.2572 58.6691 177.003 107.855 226.188C157.04 275.373 236.785 275.373 285.971 226.188Z" fill="white"/>
</mask>
<g mask="url(#mask0_1043_7)">
<path d="M72.1875 216.364L69.9094 218.645L78.646 227.37L80.9241 225.088L72.1875 216.364Z" fill="#FACD49"/>
<path d="M69.9038 225.108L72.1851 227.386L80.9094 218.65L78.6281 216.372L69.9038 225.108Z" fill="#FACD49"/>
<path d="M72.218 239.446L69.9399 241.727L78.6765 250.451L80.9546 248.17L72.218 239.446Z" fill="#FACD49"/>
<path d="M69.9221 248.177L72.2034 250.456L80.9277 241.719L78.6464 239.441L69.9221 248.177Z" fill="#FACD49"/>
<path d="M72.2293 260.905L69.9512 263.186L78.6877 271.911L80.9658 269.629L72.2293 260.905Z" fill="#FACD49"/>
<path d="M69.9472 269.672L72.2285 271.95L80.9529 263.213L78.6716 260.935L69.9472 269.672Z" fill="#FACD49"/>
<path d="M72.1555 148.011L69.8774 150.292L78.614 159.017L80.8921 156.736L72.1555 148.011Z" fill="#FACD49"/>
<path d="M69.8554 156.728L72.1367 159.006L80.8611 150.27L78.5798 147.992L69.8554 156.728Z" fill="#FACD49"/>
<path d="M72.1558 171.081L69.8777 173.362L78.6142 182.086L80.8923 179.805L72.1558 171.081Z" fill="#FACD49"/>
<path d="M69.8789 179.828L72.1602 182.106L80.8845 173.369L78.6032 171.091L69.8789 179.828Z" fill="#FACD49"/>
<path d="M72.179 192.545L69.9009 194.826L78.6374 203.55L80.9155 201.269L72.179 192.545Z" fill="#FACD49"/>
<path d="M69.8908 201.291L72.1721 203.569L80.8965 194.833L78.6152 192.555L69.8908 201.291Z" fill="#FACD49"/>
<path d="M72.1072 79.615L69.8291 81.8962L78.5656 90.6206L80.8437 88.3393L72.1072 79.615Z" fill="#FACD49"/>
<path d="M69.8183 88.365L72.0996 90.6431L80.824 81.9065L78.5427 79.6284L69.8183 88.365Z" fill="#FACD49"/>
<path d="M72.107 102.727L69.8289 105.008L78.5654 113.732L80.8435 111.451L72.107 102.727Z" fill="#FACD49"/>
<path d="M69.8484 111.446L72.1296 113.724L80.854 104.988L78.5727 102.71L69.8484 111.446Z" fill="#FACD49"/>
<path d="M72.1304 124.191L69.8523 126.472L78.5888 135.197L80.8669 132.915L72.1304 124.191Z" fill="#FACD49"/>
<path d="M69.8613 132.91L72.1426 135.188L80.8669 126.451L78.5856 124.173L69.8613 132.91Z" fill="#FACD49"/>
<path d="M72.0457 11.2668L69.7676 13.5481L78.5041 22.2725L80.7822 19.9912L72.0457 11.2668Z" fill="#FACD49"/>
<path d="M69.7758 19.9963L72.0571 22.2744L80.7815 13.5379L78.5002 11.2598L69.7758 19.9963Z" fill="#FACD49"/>
<path d="M72.0767 34.3305L69.7986 36.6118L78.5351 45.3362L80.8132 43.0549L72.0767 34.3305Z" fill="#FACD49"/>
<path d="M69.7939 43.0654L72.0752 45.3435L80.7996 36.607L78.5183 34.3289L69.7939 43.0654Z" fill="#FACD49"/>
<path d="M72.0821 55.7949L69.804 58.0762L78.5405 66.8005L80.8186 64.5192L72.0821 55.7949Z" fill="#FACD49"/>
<path d="M69.8071 64.5469L72.0884 66.825L80.8127 58.0884L78.5315 55.8103L69.8071 64.5469Z" fill="#FACD49"/>
<path d="M96.4614 216.363L94.1833 218.644L102.92 227.368L105.198 225.087L96.4614 216.363Z" fill="#FACD49"/>
<path d="M94.1699 225.085L96.4512 227.363L105.176 218.627L102.894 216.349L94.1699 225.085Z" fill="#FACD49"/>
<path d="M119.421 216.339L117.143 218.62L125.879 227.344L128.157 225.063L119.421 216.339Z" fill="#FACD49"/>
<path d="M117.14 225.066L119.421 227.344L128.145 218.608L125.864 216.33L117.14 225.066Z" fill="#FACD49"/>
<path d="M142.349 216.32L140.071 218.601L148.807 227.326L151.085 225.044L142.349 216.32Z" fill="#FACD49"/>
<path d="M140.096 225.06L142.377 227.338L151.102 218.602L148.821 216.323L140.096 225.06Z" fill="#FACD49"/>
<path d="M165.307 216.325L163.029 218.606L171.765 227.33L174.043 225.049L165.307 216.325Z" fill="#FACD49"/>
<path d="M163.004 225.041L165.285 227.319L174.01 218.583L171.728 216.305L163.004 225.041Z" fill="#FACD49"/>
<path d="M188.236 216.288L185.958 218.569L194.694 227.294L196.972 225.012L188.236 216.288Z" fill="#FACD49"/>
<path d="M185.962 225.035L188.243 227.313L196.967 218.576L194.686 216.298L185.962 225.035Z" fill="#FACD49"/>
<path d="M96.4929 239.409L94.2148 241.69L102.951 250.414L105.229 248.133L96.4929 239.409Z" fill="#FACD49"/>
<path d="M94.1884 248.172L96.4697 250.45L105.194 241.713L102.913 239.435L94.1884 248.172Z" fill="#FACD49"/>
<path d="M119.42 239.407L117.142 241.689L125.879 250.413L128.157 248.132L119.42 239.407Z" fill="#FACD49"/>
<path d="M117.126 248.165L119.408 250.443L128.132 241.707L125.851 239.429L117.126 248.165Z" fill="#FACD49"/>
<path d="M142.379 239.419L140.101 241.701L148.837 250.425L151.115 248.144L142.379 239.419Z" fill="#FACD49"/>
<path d="M140.096 248.146L142.377 250.425L151.102 241.688L148.821 239.41L140.096 248.146Z" fill="#FACD49"/>
<path d="M165.32 239.388L163.042 241.669L171.779 250.394L174.057 248.113L165.32 239.388Z" fill="#FACD49"/>
<path d="M163.022 248.11L165.304 250.388L174.028 241.652L171.747 239.374L163.022 248.11Z" fill="#FACD49"/>
<path d="M188.267 239.387L185.989 241.668L194.726 250.393L197.004 248.112L188.267 239.387Z" fill="#FACD49"/>
<path d="M185.962 248.103L188.243 250.382L196.967 241.645L194.686 239.367L185.962 248.103Z" fill="#FACD49"/>
<path d="M96.4981 260.891L94.22 263.172L102.957 271.896L105.235 269.615L96.4981 260.891Z" fill="#FACD49"/>
<path d="M94.2187 269.636L96.5 271.914L105.224 263.177L102.943 260.899L94.2187 269.636Z" fill="#FACD49"/>
<path d="M119.444 260.89L117.166 263.171L125.903 271.896L128.181 269.614L119.444 260.89Z" fill="#FACD49"/>
<path d="M117.14 269.629L119.421 271.907L128.145 263.171L125.864 260.893L117.14 269.629Z" fill="#FACD49"/>
<path d="M142.385 260.884L140.107 263.165L148.843 271.889L151.121 269.608L142.385 260.884Z" fill="#FACD49"/>
<path d="M140.109 269.61L142.39 271.888L151.114 263.152L148.833 260.874L140.109 269.61Z" fill="#FACD49"/>
<path d="M165.331 260.865L163.053 263.146L171.79 271.871L174.068 269.59L165.331 260.865Z" fill="#FACD49"/>
<path d="M163.047 269.604L165.329 271.883L174.053 263.146L171.772 260.868L163.047 269.604Z" fill="#FACD49"/>
<path d="M188.272 260.852L185.994 263.133L194.73 271.857L197.009 269.576L188.272 260.852Z" fill="#FACD49"/>
<path d="M185.974 269.568L188.255 271.846L196.979 263.109L194.698 260.831L185.974 269.568Z" fill="#FACD49"/>
<path d="M96.4131 147.991L94.135 150.272L102.872 158.997L105.15 156.715L96.4131 147.991Z" fill="#FACD49"/>
<path d="M94.1406 156.721L96.4219 159L105.146 150.263L102.865 147.985L94.1406 156.721Z" fill="#FACD49"/>
<path d="M119.372 147.96L117.094 150.241L125.831 158.965L128.109 156.684L119.372 147.96Z" fill="#FACD49"/>
<path d="M117.084 156.702L119.365 158.98L128.09 150.244L125.809 147.966L117.084 156.702Z" fill="#FACD49"/>
<path d="M142.317 147.959L140.039 150.24L148.776 158.965L151.054 156.683L142.317 147.959Z" fill="#FACD49"/>
<path d="M140.022 156.697L142.304 158.975L151.028 150.238L148.747 147.96L140.022 156.697Z" fill="#FACD49"/>
<path d="M165.246 147.923L162.968 150.204L171.705 158.928L173.983 156.647L165.246 147.923Z" fill="#FACD49"/>
<path d="M162.98 156.672L165.261 158.95L173.985 150.214L171.704 147.936L162.98 156.672Z" fill="#FACD49"/>
<path d="M188.193 147.922L185.915 150.203L194.651 158.927L196.929 156.646L188.193 147.922Z" fill="#FACD49"/>
<path d="M185.919 156.666L188.201 158.944L196.925 150.208L194.644 147.93L185.919 156.666Z" fill="#FACD49"/>
<path d="M96.4434 171.072L94.1653 173.354L102.902 182.078L105.18 179.797L96.4434 171.072Z" fill="#FACD49"/>
<path d="M94.1579 179.791L96.4392 182.069L105.164 173.332L102.882 171.054L94.1579 179.791Z" fill="#FACD49"/>
<path d="M119.384 171.041L117.106 173.323L125.843 182.047L128.121 179.766L119.384 171.041Z" fill="#FACD49"/>
<path d="M117.102 179.771L119.383 182.05L128.107 173.313L125.826 171.035L117.102 179.771Z" fill="#FACD49"/>
<path d="M142.331 171.023L140.052 173.304L148.789 182.029L151.067 179.747L142.331 171.023Z" fill="#FACD49"/>
<path d="M140.041 179.765L142.322 182.043L151.046 173.307L148.765 171.029L140.041 179.765Z" fill="#FACD49"/>
<path d="M165.277 171.022L162.999 173.303L171.735 182.028L174.013 179.746L165.277 171.022Z" fill="#FACD49"/>
<path d="M162.98 179.759L165.261 182.037L173.986 173.301L171.705 171.022L162.98 179.759Z" fill="#FACD49"/>
<path d="M188.205 171.003L185.927 173.285L194.663 182.009L196.941 179.728L188.205 171.003Z" fill="#FACD49"/>
<path d="M185.936 179.752L188.218 182.031L196.942 173.294L194.661 171.016L185.936 179.752Z" fill="#FACD49"/>
<path d="M96.4485 192.554L94.1704 194.836L102.907 203.56L105.185 201.279L96.4485 192.554Z" fill="#FACD49"/>
<path d="M94.1699 201.254L96.4512 203.532L105.176 194.796L102.894 192.518L94.1699 201.254Z" fill="#FACD49"/>
<path d="M119.395 192.519L117.117 194.8L125.853 203.524L128.132 201.243L119.395 192.519Z" fill="#FACD49"/>
<path d="M117.127 201.248L119.408 203.526L128.133 194.79L125.851 192.511L117.127 201.248Z" fill="#FACD49"/>
<path d="M142.353 192.505L140.075 194.786L148.811 203.51L151.089 201.229L142.353 192.505Z" fill="#FACD49"/>
<path d="M140.053 201.229L142.334 203.507L151.058 194.771L148.777 192.493L140.053 201.229Z" fill="#FACD49"/>
<path d="M165.282 192.487L163.004 194.768L171.74 203.492L174.019 201.211L165.282 192.487Z" fill="#FACD49"/>
<path d="M162.992 201.223L165.273 203.501L173.998 194.765L171.717 192.487L162.992 201.223Z" fill="#FACD49"/>
<path d="M188.228 192.468L185.95 194.749L194.686 203.474L196.965 201.192L188.228 192.468Z" fill="#FACD49"/>
<path d="M185.949 201.217L188.23 203.495L196.954 194.758L194.673 192.48L185.949 201.217Z" fill="#FACD49"/>
<path d="M96.3823 79.6128L94.1042 81.894L102.841 90.6184L105.119 88.3371L96.3823 79.6128Z" fill="#FACD49"/>
<path d="M94.103 88.3406L96.3843 90.6187L105.109 81.8821L102.827 79.604L94.103 88.3406Z" fill="#FACD49"/>
<path d="M119.311 79.612L117.033 81.8933L125.77 90.6177L128.048 88.3364L119.311 79.612Z" fill="#FACD49"/>
<path d="M117.024 88.3347L119.305 90.6128L128.03 81.8762L125.748 79.5982L117.024 88.3347Z" fill="#FACD49"/>
<path d="M142.258 79.5932L139.979 81.8745L148.716 90.5989L150.994 88.3176L142.258 79.5932Z" fill="#FACD49"/>
<path d="M139.982 88.3281L142.263 90.6062L150.987 81.8697L148.706 79.5916L139.982 88.3281Z" fill="#FACD49"/>
<path d="M165.197 79.5622L162.919 81.8435L171.656 90.5679L173.934 88.2866L165.197 79.5622Z" fill="#FACD49"/>
<path d="M162.907 88.3096L165.188 90.5876L173.912 81.8511L171.631 79.573L162.907 88.3096Z" fill="#FACD49"/>
<path d="M188.157 79.5559L185.878 81.8372L194.615 90.5615L196.893 88.2802L188.157 79.5559Z" fill="#FACD49"/>
<path d="M185.858 88.2903L188.139 90.5684L196.864 81.8318L194.582 79.5537L185.858 88.2903Z" fill="#FACD49"/>
<path d="M96.3955 102.694L94.1174 104.976L102.854 113.7L105.132 111.419L96.3955 102.694Z" fill="#FACD49"/>
<path d="M94.103 111.427L96.3843 113.705L105.109 104.969L102.827 102.691L94.103 111.427Z" fill="#FACD49"/>
<path d="M119.341 102.676L117.063 104.957L125.799 113.681L128.077 111.4L119.341 102.676Z" fill="#FACD49"/>
<path d="M117.06 111.421L119.341 113.699L128.065 104.962L125.784 102.684L117.06 111.421Z" fill="#FACD49"/>
<path d="M142.269 102.675L139.991 104.956L148.728 113.68L151.006 111.399L142.269 102.675Z" fill="#FACD49"/>
<path d="M139.98 111.415L142.262 113.693L150.986 104.956L148.705 102.678L139.98 111.415Z" fill="#FACD49"/>
<path d="M165.228 102.626L162.95 104.907L171.687 113.631L173.965 111.35L165.228 102.626Z" fill="#FACD49"/>
<path d="M162.925 111.378L165.206 113.656L173.93 104.919L171.649 102.641L162.925 111.378Z" fill="#FACD49"/>
<path d="M188.157 102.607L185.878 104.889L194.615 113.613L196.893 111.332L188.157 102.607Z" fill="#FACD49"/>
<path d="M185.882 111.372L188.164 113.65L196.888 104.913L194.607 102.635L185.882 111.372Z" fill="#FACD49"/>
<path d="M96.4055 124.171L94.1274 126.452L102.864 135.177L105.142 132.895L96.4055 124.171Z" fill="#FACD49"/>
<path d="M94.1279 132.904L96.4092 135.182L105.134 126.445L102.852 124.167L94.1279 132.904Z" fill="#FACD49"/>
<path d="M119.346 124.14L117.068 126.421L125.805 135.146L128.083 132.864L119.346 124.14Z" fill="#FACD49"/>
<path d="M117.054 132.885L119.335 135.163L128.06 126.427L125.779 124.148L117.054 132.885Z" fill="#FACD49"/>
<path d="M142.293 124.122L140.015 126.403L148.751 135.127L151.03 132.846L142.293 124.122Z" fill="#FACD49"/>
<path d="M139.994 132.879L142.275 135.157L150.999 126.42L148.718 124.142L139.994 132.879Z" fill="#FACD49"/>
<path d="M165.221 124.103L162.943 126.384L171.68 135.109L173.958 132.827L165.221 124.103Z" fill="#FACD49"/>
<path d="M162.968 132.855L165.25 135.133L173.974 126.396L171.693 124.118L162.968 132.855Z" fill="#FACD49"/>
<path d="M188.18 124.089L185.902 126.371L194.638 135.095L196.916 132.814L188.18 124.089Z" fill="#FACD49"/>
<path d="M185.894 132.835L188.176 135.114L196.9 126.377L194.619 124.099L185.894 132.835Z" fill="#FACD49"/>
<path d="M96.3211 11.2468L94.043 13.5281L102.78 22.2524L105.058 19.9712L96.3211 11.2468Z" fill="#FACD49"/>
<path d="M94.0425 19.9905L96.3237 22.2686L105.048 13.532L102.767 11.2539L94.0425 19.9905Z" fill="#FACD49"/>
<path d="M119.261 11.2158L116.983 13.4971L125.72 22.2214L127.998 19.9401L119.261 11.2158Z" fill="#FACD49"/>
<path d="M116.987 19.9714L119.268 22.2495L127.992 13.513L125.711 11.2349L116.987 19.9714Z" fill="#FACD49"/>
<path d="M142.221 11.2097L139.943 13.491L148.679 22.2153L150.957 19.934L142.221 11.2097Z" fill="#FACD49"/>
<path d="M139.938 19.9524L142.219 22.2305L150.944 13.4939L148.662 11.2158L139.938 19.9524Z" fill="#FACD49"/>
<path d="M165.166 11.209L162.888 13.4902L171.625 22.2146L173.903 19.9333L165.166 11.209Z" fill="#FACD49"/>
<path d="M162.895 19.9284L165.176 22.2065L173.9 13.47L171.619 11.1919L162.895 19.9284Z" fill="#FACD49"/>
<path d="M188.095 11.1902L185.817 13.4714L194.553 22.1958L196.832 19.9145L188.095 11.1902Z" fill="#FACD49"/>
<path d="M185.834 19.9221L188.115 22.2002L196.84 13.4636L194.558 11.1856L185.834 19.9221Z" fill="#FACD49"/>
<path d="M96.3338 34.3108L94.0557 36.592L102.792 45.3164L105.07 43.0351L96.3338 34.3108Z" fill="#FACD49"/>
<path d="M94.0605 43.0588L96.3418 45.3369L105.066 36.6004L102.785 34.3223L94.0605 43.0588Z" fill="#FACD49"/>
<path d="M119.28 34.3098L117.002 36.5911L125.738 45.3154L128.017 43.0341L119.28 34.3098Z" fill="#FACD49"/>
<path d="M117.018 43.053L119.299 45.3311L128.023 36.5945L125.742 34.3164L117.018 43.053Z" fill="#FACD49"/>
<path d="M142.238 34.2788L139.96 36.5601L148.697 45.2844L150.975 43.0031L142.238 34.2788Z" fill="#FACD49"/>
<path d="M139.943 43.0339L142.224 45.312L150.949 36.5755L148.667 34.2974L139.943 43.0339Z" fill="#FACD49"/>
<path d="M165.179 34.2724L162.901 36.5537L171.638 45.2781L173.916 42.9968L165.179 34.2724Z" fill="#FACD49"/>
<path d="M162.895 43.0146L165.176 45.2927L173.9 36.5562L171.619 34.2781L162.895 43.0146Z" fill="#FACD49"/>
<path d="M188.125 34.2717L185.847 36.553L194.584 45.2773L196.862 42.9961L188.125 34.2717Z" fill="#FACD49"/>
<path d="M185.852 43.0088L188.133 45.2869L196.858 36.5503L194.576 34.2722L185.852 43.0088Z" fill="#FACD49"/>
<path d="M96.3574 55.7929L94.0793 58.0742L102.816 66.7986L105.094 64.5173L96.3574 55.7929Z" fill="#FACD49"/>
<path d="M94.0727 64.5229L96.354 66.801L105.078 58.0645L102.797 55.7864L94.0727 64.5229Z" fill="#FACD49"/>
<path d="M119.303 55.7739L117.025 58.0552L125.761 66.7795L128.04 64.4983L119.303 55.7739Z" fill="#FACD49"/>
<path d="M117.03 64.5166L119.311 66.7947L128.035 58.0581L125.754 55.78L117.03 64.5166Z" fill="#FACD49"/>
<path d="M142.231 55.7553L139.953 58.0366L148.69 66.761L150.968 64.4797L142.231 55.7553Z" fill="#FACD49"/>
<path d="M139.968 64.51L142.25 66.7881L150.974 58.0515L148.693 55.7734L139.968 64.51Z" fill="#FACD49"/>
<path d="M165.189 55.7419L162.911 58.0232L171.648 66.7476L173.926 64.4663L165.189 55.7419Z" fill="#FACD49"/>
<path d="M162.894 64.4909L165.176 66.769L173.9 58.0325L171.619 55.7544L162.894 64.4909Z" fill="#FACD49"/>
<path d="M188.131 55.7358L185.853 58.0171L194.589 66.7414L196.867 64.4602L188.131 55.7358Z" fill="#FACD49"/>
<path d="M185.864 64.4546L188.146 66.7327L196.87 57.9961L194.589 55.718L185.864 64.4546Z" fill="#FACD49"/>
<path d="M208.906 216.279L206.628 218.561L215.364 227.285L217.643 225.004L208.906 216.279Z" fill="#FACD49"/>
<path d="M206.624 225.019L208.905 227.297L217.63 218.56L215.348 216.282L206.624 225.019Z" fill="#FACD49"/>
<path d="M231.852 216.261L229.574 218.542L238.311 227.267L240.589 224.985L231.852 216.261Z" fill="#FACD49"/>
<path d="M229.581 225.012L231.863 227.29L240.587 218.554L238.306 216.276L229.581 225.012Z" fill="#FACD49"/>
<path d="M254.824 216.26L252.546 218.541L261.282 227.266L263.56 224.984L254.824 216.26Z" fill="#FACD49"/>
<path d="M252.52 224.981L254.801 227.259L263.526 218.522L261.244 216.244L252.52 224.981Z" fill="#FACD49"/>
<path d="M277.751 216.241L275.473 218.523L284.21 227.247L286.488 224.966L277.751 216.241Z" fill="#FACD49"/>
<path d="M275.458 224.975L277.74 227.253L286.464 218.516L284.183 216.238L275.458 224.975Z" fill="#FACD49"/>
<path d="M300.698 216.205L298.419 218.486L307.156 227.211L309.434 224.929L300.698 216.205Z" fill="#FACD49"/>
<path d="M298.434 224.968L300.715 227.246L309.439 218.51L307.158 216.231L298.434 224.968Z" fill="#FACD49"/>
<path d="M208.937 239.361L206.658 241.642L215.395 250.367L217.673 248.085L208.937 239.361Z" fill="#FACD49"/>
<path d="M206.642 248.105L208.924 250.383L217.648 241.647L215.367 239.368L206.642 248.105Z" fill="#FACD49"/>
<path d="M231.864 239.342L229.586 241.624L238.322 250.348L240.601 248.067L231.864 239.342Z" fill="#FACD49"/>
<path d="M229.58 248.099L231.862 250.377L240.586 241.64L238.305 239.362L229.58 248.099Z" fill="#FACD49"/>
<path d="M254.823 239.311L252.545 241.593L261.282 250.317L263.56 248.036L254.823 239.311Z" fill="#FACD49"/>
<path d="M252.525 248.062L254.806 250.34L263.531 241.604L261.249 239.325L252.525 248.062Z" fill="#FACD49"/>
<path d="M277.781 239.305L275.503 241.586L284.239 250.311L286.518 248.029L277.781 239.305Z" fill="#FACD49"/>
<path d="M275.494 248.043L277.775 250.321L286.5 241.584L284.218 239.306L275.494 248.043Z" fill="#FACD49"/>
<path d="M300.71 239.304L298.432 241.586L307.168 250.31L309.446 248.029L300.71 239.304Z" fill="#FACD49"/>
<path d="M298.433 248.037L300.714 250.315L309.438 241.579L307.157 239.301L298.433 248.037Z" fill="#FACD49"/>
<path d="M208.941 260.843L206.663 263.125L215.4 271.849L217.678 269.568L208.941 260.843Z" fill="#FACD49"/>
<path d="M206.654 269.569L208.936 271.847L217.66 263.111L215.379 260.833L206.654 269.569Z" fill="#FACD49"/>
<path d="M231.888 260.807L229.61 263.088L238.346 271.812L240.624 269.531L231.888 260.807Z" fill="#FACD49"/>
<path d="M229.594 269.562L231.875 271.841L240.599 263.104L238.318 260.826L229.594 269.562Z" fill="#FACD49"/>
<path d="M254.834 260.77L252.556 263.052L261.292 271.776L263.57 269.495L254.834 260.77Z" fill="#FACD49"/>
<path d="M252.568 269.539L254.85 271.817L263.574 263.08L261.293 260.802L252.568 269.539Z" fill="#FACD49"/>
<path d="M277.774 260.757L275.496 263.039L284.233 271.763L286.511 269.482L277.774 260.757Z" fill="#FACD49"/>
<path d="M275.494 269.52L277.775 271.798L286.5 263.061L284.218 260.783L275.494 269.52Z" fill="#FACD49"/>
<path d="M300.733 260.769L298.455 263.05L307.191 271.775L309.469 269.493L300.733 260.769Z" fill="#FACD49"/>
<path d="M298.428 269.501L300.709 271.779L309.433 263.043L307.152 260.765L298.428 269.501Z" fill="#FACD49"/>
<path d="M208.875 147.883L206.597 150.165L215.333 158.889L217.612 156.608L208.875 147.883Z" fill="#FACD49"/>
<path d="M206.587 156.655L208.868 158.933L217.593 150.197L215.311 147.919L206.587 156.655Z" fill="#FACD49"/>
<path d="M231.816 147.895L229.538 150.176L238.275 158.901L240.553 156.619L231.816 147.895Z" fill="#FACD49"/>
<path d="M229.539 156.619L231.821 158.897L240.545 150.16L238.264 147.882L229.539 156.619Z" fill="#FACD49"/>
<path d="M254.762 147.876L252.484 150.158L261.221 158.882L263.499 156.601L254.762 147.876Z" fill="#FACD49"/>
<path d="M252.459 156.63L254.741 158.908L263.465 150.172L261.184 147.894L252.459 156.63Z" fill="#FACD49"/>
<path d="M277.69 147.858L275.412 150.139L284.148 158.864L286.426 156.582L277.69 147.858Z" fill="#FACD49"/>
<path d="M275.416 156.606L277.697 158.884L286.421 150.147L284.14 147.869L275.416 156.606Z" fill="#FACD49"/>
<path d="M300.649 147.844L298.371 150.125L307.108 158.85L309.386 156.569L300.649 147.844Z" fill="#FACD49"/>
<path d="M298.361 156.587L300.642 158.865L309.366 150.129L307.085 147.851L298.361 156.587Z" fill="#FACD49"/>
<path d="M208.875 170.978L206.597 173.259L215.334 181.983L217.612 179.702L208.875 170.978Z" fill="#FACD49"/>
<path d="M206.6 179.737L208.881 182.015L217.606 173.278L215.324 171L206.6 179.737Z" fill="#FACD49"/>
<path d="M231.833 170.964L229.555 173.245L238.292 181.969L240.57 179.688L231.833 170.964Z" fill="#FACD49"/>
<path d="M229.543 179.718L231.825 181.996L240.549 173.259L238.268 170.981L229.543 179.718Z" fill="#FACD49"/>
<path d="M254.774 170.958L252.496 173.239L261.232 181.964L263.51 179.682L254.774 170.958Z" fill="#FACD49"/>
<path d="M252.495 179.699L254.776 181.977L263.5 173.241L261.219 170.962L252.495 179.699Z" fill="#FACD49"/>
<path d="M277.72 170.939L275.442 173.221L284.179 181.945L286.457 179.664L277.72 170.939Z" fill="#FACD49"/>
<path d="M275.434 179.693L277.715 181.971L286.439 173.234L284.158 170.956L275.434 179.693Z" fill="#FACD49"/>
<path d="M300.662 170.908L298.384 173.189L307.121 181.914L309.399 179.633L300.662 170.908Z" fill="#FACD49"/>
<path d="M298.379 179.656L300.66 181.934L309.384 173.198L307.103 170.919L298.379 179.656Z" fill="#FACD49"/>
<path d="M208.898 192.459L206.62 194.741L215.356 203.465L217.635 201.184L208.898 192.459Z" fill="#FACD49"/>
<path d="M206.594 201.2L208.876 203.479L217.6 194.742L215.319 192.464L206.594 201.2Z" fill="#FACD49"/>
<path d="M231.839 192.428L229.561 194.71L238.298 203.434L240.576 201.153L231.839 192.428Z" fill="#FACD49"/>
<path d="M229.538 201.182L231.819 203.46L240.544 194.723L238.262 192.445L229.538 201.182Z" fill="#FACD49"/>
<path d="M254.798 192.423L252.52 194.704L261.257 203.428L263.535 201.147L254.798 192.423Z" fill="#FACD49"/>
<path d="M252.508 201.163L254.789 203.441L263.513 194.705L261.232 192.427L252.508 201.163Z" fill="#FACD49"/>
<path d="M277.726 192.404L275.448 194.685L284.184 203.409L286.462 201.128L277.726 192.404Z" fill="#FACD49"/>
<path d="M275.446 201.157L277.728 203.435L286.452 194.698L284.171 192.42L275.446 201.157Z" fill="#FACD49"/>
<path d="M300.673 192.385L298.395 194.667L307.131 203.391L309.409 201.11L300.673 192.385Z" fill="#FACD49"/>
<path d="M298.404 201.133L300.685 203.411L309.409 194.674L307.128 192.396L298.404 201.133Z" fill="#FACD49"/>
<path d="M208.827 79.5481L206.549 81.8293L215.285 90.5537L217.563 88.2724L208.827 79.5481Z" fill="#FACD49"/>
<path d="M206.54 88.2746L208.821 90.5527L217.545 81.8162L215.264 79.5381L206.54 88.2746Z" fill="#FACD49"/>
<path d="M231.754 79.5117L229.476 81.793L238.213 90.5173L240.491 88.236L231.754 79.5117Z" fill="#FACD49"/>
<path d="M229.478 88.2685L231.76 90.5466L240.484 81.8101L238.203 79.532L229.478 88.2685Z" fill="#FACD49"/>
<path d="M254.714 79.4983L252.436 81.7795L261.172 90.5039L263.45 88.2226L254.714 79.4983Z" fill="#FACD49"/>
<path d="M252.44 88.2495L254.722 90.5276L263.446 81.791L261.165 79.513L252.44 88.2495Z" fill="#FACD49"/>
<path d="M277.659 79.4797L275.381 81.761L284.118 90.4853L286.396 88.2041L277.659 79.4797Z" fill="#FACD49"/>
<path d="M275.379 88.2432L277.66 90.5212L286.385 81.7847L284.103 79.5066L275.379 88.2432Z" fill="#FACD49"/>
<path d="M300.605 79.479L298.327 81.7603L307.064 90.4846L309.342 88.2033L300.605 79.479Z" fill="#FACD49"/>
<path d="M298.3 88.2373L300.581 90.5154L309.305 81.7788L307.024 79.5007L298.3 88.2373Z" fill="#FACD49"/>
<path d="M208.839 102.612L206.561 104.893L215.298 113.617L217.576 111.336L208.839 102.612Z" fill="#FACD49"/>
<path d="M206.557 111.361L208.839 113.639L217.563 104.903L215.282 102.625L206.557 111.361Z" fill="#FACD49"/>
<path d="M231.785 102.593L229.507 104.875L238.243 113.599L240.521 111.318L231.785 102.593Z" fill="#FACD49"/>
<path d="M229.514 111.337L231.795 113.615L240.52 104.879L238.238 102.601L229.514 111.337Z" fill="#FACD49"/>
<path d="M254.731 102.593L252.453 104.874L261.19 113.598L263.468 111.317L254.731 102.593Z" fill="#FACD49"/>
<path d="M252.435 111.331L254.717 113.609L263.441 104.873L261.16 102.595L252.435 111.331Z" fill="#FACD49"/>
<path d="M277.672 102.561L275.394 104.843L284.131 113.567L286.409 111.286L277.672 102.561Z" fill="#FACD49"/>
<path d="M275.379 111.312L277.66 113.59L286.385 104.854L284.103 102.575L275.379 111.312Z" fill="#FACD49"/>
<path d="M300.618 102.542L298.34 104.824L307.077 113.548L309.355 111.267L300.618 102.542Z" fill="#FACD49"/>
<path d="M298.335 111.305L300.617 113.583L309.341 104.847L307.06 102.569L298.335 111.305Z" fill="#FACD49"/>
<path d="M208.862 124.076L206.584 126.358L215.32 135.082L217.598 132.801L208.862 124.076Z" fill="#FACD49"/>
<path d="M206.588 132.808L208.869 135.086L217.593 126.349L215.312 124.071L206.588 132.808Z" fill="#FACD49"/>
<path d="M231.809 124.075L229.531 126.357L238.267 135.081L240.545 132.8L231.809 124.075Z" fill="#FACD49"/>
<path d="M229.527 132.801L231.808 135.079L240.532 126.343L238.251 124.065L229.527 132.801Z" fill="#FACD49"/>
<path d="M254.736 124.074L252.458 126.356L261.195 135.08L263.473 132.799L254.736 124.074Z" fill="#FACD49"/>
<path d="M252.447 132.813L254.729 135.091L263.453 126.354L261.172 124.076L252.447 132.813Z" fill="#FACD49"/>
<path d="M277.695 124.026L275.417 126.307L284.154 135.031L286.432 132.75L277.695 124.026Z" fill="#FACD49"/>
<path d="M275.392 132.776L277.673 135.054L286.397 126.318L284.116 124.04L275.392 132.776Z" fill="#FACD49"/>
<path d="M300.624 124.025L298.346 126.306L307.082 135.031L309.361 132.749L300.624 124.025Z" fill="#FACD49"/>
<path d="M298.349 132.77L300.63 135.048L309.355 126.311L307.073 124.033L298.349 132.77Z" fill="#FACD49"/>
<path d="M208.783 11.1819L206.505 13.4631L215.242 22.1875L217.52 19.9062L208.783 11.1819Z" fill="#FACD49"/>
<path d="M206.497 19.9236L208.778 22.2017L217.502 13.4651L215.221 11.187L206.497 19.9236Z" fill="#FACD49"/>
<path d="M231.724 11.1508L229.446 13.4321L238.182 22.1565L240.46 19.8752L231.724 11.1508Z" fill="#FACD49"/>
<path d="M229.441 19.8874L231.722 22.1655L240.447 13.429L238.165 11.1509L229.441 19.8874Z" fill="#FACD49"/>
<path d="M254.652 11.1323L252.374 13.4136L261.111 22.1379L263.389 19.8567L254.652 11.1323Z" fill="#FACD49"/>
<path d="M252.38 19.8811L254.661 22.1592L263.385 13.4226L261.104 11.1445L252.38 19.8811Z" fill="#FACD49"/>
<path d="M277.598 11.1138L275.32 13.395L284.057 22.1194L286.335 19.8381L277.598 11.1138Z" fill="#FACD49"/>
<path d="M275.337 19.875L277.618 22.1531L286.343 13.4165L284.061 11.1384L275.337 19.875Z" fill="#FACD49"/>
<path d="M300.57 11.1128L298.292 13.394L307.028 22.1184L309.306 19.8371L300.57 11.1128Z" fill="#FACD49"/>
<path d="M298.294 19.8257L300.575 22.1038L309.299 13.3672L307.018 11.0891L298.294 19.8257Z" fill="#FACD49"/>
<path d="M208.796 34.2458L206.518 36.5271L215.254 45.2515L217.532 42.9702L208.796 34.2458Z" fill="#FACD49"/>
<path d="M206.515 42.9929L208.796 45.271L217.521 36.5344L215.239 34.2563L206.515 42.9929Z" fill="#FACD49"/>
<path d="M231.754 34.2324L229.476 36.5137L238.213 45.238L240.491 42.9568L231.754 34.2324Z" fill="#FACD49"/>
<path d="M229.441 42.9736L231.722 45.2517L240.447 36.5152L238.165 34.2371L229.441 42.9736Z" fill="#FACD49"/>
<path d="M254.665 34.196L252.387 36.4773L261.124 45.2017L263.402 42.9204L254.665 34.196Z" fill="#FACD49"/>
<path d="M252.399 42.9675L254.68 45.2456L263.404 36.5091L261.123 34.231L252.399 42.9675Z" fill="#FACD49"/>
<path d="M277.611 34.1953L275.333 36.4766L284.07 45.2009L286.348 42.9196L277.611 34.1953Z" fill="#FACD49"/>
<path d="M275.355 42.9436L277.636 45.2217L286.361 36.4851L284.08 34.207L275.355 42.9436Z" fill="#FACD49"/>
<path d="M300.556 34.1943L298.278 36.4756L307.015 45.1999L309.293 42.9187L300.556 34.1943Z" fill="#FACD49"/>
<path d="M298.275 42.955L300.557 45.2332L309.281 36.4966L307 34.2185L298.275 42.955Z" fill="#FACD49"/>
<path d="M208.801 55.7099L206.523 57.9912L215.259 66.7156L217.538 64.4343L208.801 55.7099Z" fill="#FACD49"/>
<path d="M206.528 64.4563L208.809 66.7344L217.533 57.9978L215.252 55.7197L206.528 64.4563Z" fill="#FACD49"/>
<path d="M231.747 55.7092L229.469 57.9905L238.206 66.7148L240.484 64.4336L231.747 55.7092Z" fill="#FACD49"/>
<path d="M229.466 64.4502L231.748 66.7283L240.472 57.9917L238.191 55.7136L229.466 64.4502Z" fill="#FACD49"/>
<path d="M254.689 55.6601L252.41 57.9414L261.147 66.6658L263.425 64.3845L254.689 55.6601Z" fill="#FACD49"/>
<path d="M252.429 64.4135L254.71 66.6917L263.435 57.9551L261.153 55.677L252.429 64.4135Z" fill="#FACD49"/>
<path d="M277.635 55.6599L275.356 57.9412L284.093 66.6655L286.371 64.3843L277.635 55.6599Z" fill="#FACD49"/>
<path d="M275.349 64.4077L277.63 66.6858L286.355 57.9492L284.073 55.6712L275.349 64.4077Z" fill="#FACD49"/>
<path d="M300.58 55.6589L298.302 57.9402L307.039 66.6645L309.317 64.3833L300.58 55.6589Z" fill="#FACD49"/>
<path d="M298.288 64.4192L300.569 66.6973L309.294 57.9607L307.012 55.6826L298.288 64.4192Z" fill="#FACD49"/>
<path d="M324.984 216.208L322.706 218.49L331.443 227.214L333.721 224.933L324.984 216.208Z" fill="#FACD49"/>
<path d="M322.687 224.932L324.968 227.21L333.692 218.474L331.411 216.196L322.687 224.932Z" fill="#FACD49"/>
<path d="M324.985 239.285L322.707 241.566L331.444 250.291L333.722 248.009L324.985 239.285Z" fill="#FACD49"/>
<path d="M322.7 248.031L324.981 250.309L333.705 241.573L331.424 239.294L322.7 248.031Z" fill="#FACD49"/>
<path d="M324.99 260.749L322.712 263.031L331.449 271.755L333.727 269.474L324.99 260.749Z" fill="#FACD49"/>
<path d="M322.713 269.495L324.994 271.773L333.718 263.036L331.437 260.758L322.713 269.495Z" fill="#FACD49"/>
<path d="M324.923 147.825L322.645 150.106L331.381 158.83L333.659 156.549L324.923 147.825Z" fill="#FACD49"/>
<path d="M322.626 156.581L324.907 158.859L333.632 150.123L331.351 147.844L322.626 156.581Z" fill="#FACD49"/>
<path d="M324.936 170.906L322.658 173.188L331.395 181.912L333.673 179.631L324.936 170.906Z" fill="#FACD49"/>
<path d="M322.663 179.65L324.944 181.928L333.668 173.192L331.387 170.914L322.663 179.65Z" fill="#FACD49"/>
<path d="M324.959 192.371L322.681 194.652L331.418 203.376L333.696 201.095L324.959 192.371Z" fill="#FACD49"/>
<path d="M322.675 201.114L324.956 203.392L333.68 194.656L331.399 192.378L322.675 201.114Z" fill="#FACD49"/>
<path d="M324.863 79.4587L322.584 81.74L331.321 90.4643L333.599 88.1831L324.863 79.4587Z" fill="#FACD49"/>
<path d="M322.585 88.2126L324.866 90.4907L333.591 81.7542L331.309 79.4761L322.585 88.2126Z" fill="#FACD49"/>
<path d="M324.875 102.54L322.596 104.822L331.333 113.546L333.611 111.265L324.875 102.54Z" fill="#FACD49"/>
<path d="M322.584 111.299L324.865 113.577L333.59 104.841L331.308 102.563L322.584 111.299Z" fill="#FACD49"/>
<path d="M324.899 124.005L322.621 126.286L331.357 135.01L333.636 132.729L324.899 124.005Z" fill="#FACD49"/>
<path d="M322.597 132.763L324.878 135.042L333.603 126.305L331.321 124.027L322.597 132.763Z" fill="#FACD49"/>
<path d="M324.826 11.093L322.548 13.3743L331.285 22.0986L333.563 19.8174L324.826 11.093Z" fill="#FACD49"/>
<path d="M322.542 19.8374L324.823 22.1155L333.547 13.3789L331.266 11.1008L322.542 19.8374Z" fill="#FACD49"/>
<path d="M324.857 34.1745L322.579 36.4558L331.316 45.1802L333.594 42.8989L324.857 34.1745Z" fill="#FACD49"/>
<path d="M322.56 42.906L324.841 45.1841L333.565 36.4475L331.284 34.1694L322.56 42.906Z" fill="#FACD49"/>
<path d="M324.862 55.6391L322.584 57.9204L331.321 66.6448L333.599 64.3635L324.862 55.6391Z" fill="#FACD49"/>
<path d="M322.572 64.3701L324.853 66.6482L333.577 57.9116L331.296 55.6335L322.572 64.3701Z" fill="#FACD49"/>
</g>
<path d="M103.061 0H98.4556V11.5142H103.061V0Z" fill="#FF5722"/>
<path d="M103.061 0H98.4556V11.5142H103.061V0Z" fill="#FF5722"/>
<path d="M103.061 190.001H98.4556V201.516H103.061V190.001Z" fill="#FF5722"/>
<path d="M11.5147 98.4551H0.000488281V103.061H11.5147V98.4551Z" fill="#FF5722"/>
<path d="M11.5147 98.4551H0.000488281V103.061H11.5147V98.4551Z" fill="#FF5722"/>
<path d="M201.516 98.4551H190.001V103.061H201.516V98.4551Z" fill="#FF5722"/>
<path d="M31.1544 27.8827L27.8977 31.1394L36.0394 39.2811L39.2961 36.0244L31.1544 27.8827Z" fill="#FF5722"/>
<path d="M31.1544 27.8827L27.8977 31.1394L36.0394 39.2811L39.2961 36.0244L31.1544 27.8827Z" fill="#FF5722"/>
<path d="M165.487 162.244L162.231 165.501L170.372 173.643L173.629 170.386L165.487 162.244Z" fill="#FF5722"/>
<path d="M36.0292 162.228L27.8889 170.372L31.1462 173.628L39.2865 165.485L36.0292 162.228Z" fill="#FF5722"/>
<path d="M36.0292 162.228L27.8889 170.372L31.1462 173.628L39.2865 165.485L36.0292 162.228Z" fill="#FF5722"/>
<path d="M170.375 27.8778L162.235 36.021L165.492 39.2771L173.633 31.134L170.375 27.8778Z" fill="#FF5722"/>
<path d="M80.0434 2.12837L75.5588 3.17773L78.1822 14.3891L82.6668 13.3397L80.0434 2.12837Z" fill="#FF5722"/>
<path d="M80.0434 2.12837L75.5588 3.17773L78.1822 14.3891L82.6668 13.3397L80.0434 2.12837Z" fill="#FF5722"/>
<path d="M123.341 187.139L118.856 188.188L121.48 199.399L125.964 198.35L123.341 187.139Z" fill="#FF5722"/>
<path d="M13.3474 118.848L2.13696 121.476L3.18789 125.96L14.3983 123.332L13.3474 118.848Z" fill="#FF5722"/>
<path d="M13.3474 118.848L2.13696 121.476L3.18789 125.96L14.3983 123.332L13.3474 118.848Z" fill="#FF5722"/>
<path d="M198.345 75.5663L187.134 78.1917L188.184 82.676L199.395 80.0506L198.345 75.5663Z" fill="#FF5722"/>
<path d="M16.3727 45.6651L13.9443 49.5786L23.728 55.6495L26.1564 51.736L16.3727 45.6651Z" fill="#FF5722"/>
<path d="M16.3727 45.6651L13.9443 49.5786L23.728 55.6495L26.1564 51.736L16.3727 45.6651Z" fill="#FF5722"/>
<path d="M177.798 145.852L175.369 149.765L185.153 155.836L187.581 151.923L177.798 145.852Z" fill="#FF5722"/>
<path d="M51.7552 175.359L45.6826 185.142L49.5957 187.571L55.6682 177.788L51.7552 175.359Z" fill="#FF5722"/>
<path d="M51.7552 175.359L45.6826 185.142L49.5957 187.571L55.6682 177.788L51.7552 175.359Z" fill="#FF5722"/>
<path d="M151.921 13.9278L145.849 23.7104L149.762 26.1395L155.834 16.3569L151.921 13.9278Z" fill="#FF5722"/>
<path d="M65.7366 6.24221L61.4558 7.94141L65.7038 18.6433L69.9846 16.9441L65.7366 6.24221Z" fill="#FF5722"/>
<path d="M65.7366 6.24221L61.4558 7.94141L65.7038 18.6433L69.9846 16.9441L65.7366 6.24221Z" fill="#FF5722"/>
<path d="M135.817 182.855L131.536 184.554L135.784 195.256L140.065 193.557L135.817 182.855Z" fill="#FF5722"/>
<path d="M16.956 131.525L6.25415 135.773L7.95334 140.054L18.6552 135.806L16.956 131.525Z" fill="#FF5722"/>
<path d="M16.956 131.525L6.25415 135.773L7.95334 140.054L18.6552 135.806L16.956 131.525Z" fill="#FF5722"/>
<path d="M193.569 61.4442L182.867 65.6921L184.566 69.9729L195.268 65.7249L193.569 61.4442Z" fill="#FF5722"/>
<path d="M9.17628 58.6984L7.3501 62.9265L17.9205 67.492L19.7466 63.2638L9.17628 58.6984Z" fill="#FF5722"/>
<path d="M9.17628 58.6984L7.3501 62.9265L17.9205 67.492L19.7466 63.2638L9.17628 58.6984Z" fill="#FF5722"/>
<path d="M183.623 134.038L181.797 138.266L192.367 142.832L194.193 138.604L183.623 134.038Z" fill="#FF5722"/>
<path d="M63.2819 181.792L58.7183 192.363L62.9467 194.189L67.5103 183.618L63.2819 181.792Z" fill="#FF5722"/>
<path d="M63.2819 181.792L58.7183 192.363L62.9467 194.189L67.5103 183.618L63.2819 181.792Z" fill="#FF5722"/>
<path d="M138.581 7.34412L134.018 17.9153L138.246 19.7407L142.81 9.16956L138.581 7.34412Z" fill="#FF5722"/>
<path d="M45.1243 16.7269L41.3433 19.3567L47.9179 28.8092L51.6989 26.1794L45.1243 16.7269Z" fill="#FF5722"/>
<path d="M45.1243 16.7269L41.3433 19.3567L47.9179 28.8092L51.6989 26.1794L45.1243 16.7269Z" fill="#FF5722"/>
<path d="M153.615 172.698L149.833 175.328L156.408 184.78L160.189 182.15L153.615 172.698Z" fill="#FF5722"/>
<path d="M26.1855 149.818L16.7329 156.392L19.3628 160.173L28.8153 153.599L26.1855 149.818Z" fill="#FF5722"/>
<path d="M26.1855 149.818L16.7329 156.392L19.3628 160.173L28.8153 153.599L26.1855 149.818Z" fill="#FF5722"/>
<path d="M182.17 41.3512L172.717 47.9258L175.347 51.7068L184.8 45.1322L182.17 41.3512Z" fill="#FF5722"/>
<path d="M1.99272 80.6766L1.17871 85.2097L12.5116 87.2447L13.3256 82.7116L1.99272 80.6766Z" fill="#FF5722"/>
<path d="M1.99272 80.6766L1.17871 85.2097L12.5116 87.2447L13.3256 82.7116L1.99272 80.6766Z" fill="#FF5722"/>
<path d="M189.018 114.268L188.204 118.801L199.537 120.836L200.351 116.303L189.018 114.268Z" fill="#FF5722"/>
<path d="M82.7313 188.187L80.6982 199.52L85.2315 200.333L87.2646 189L82.7313 188.187Z" fill="#FF5722"/>
<path d="M82.7313 188.187L80.6982 199.52L85.2315 200.333L87.2646 189L82.7313 188.187Z" fill="#FF5722"/>
<path d="M116.294 1.17163L114.261 12.5049L118.794 13.3181L120.827 1.98485L116.294 1.17163Z" fill="#FF5722"/>
</svg>
